<?xml version="1.0" standalone="no"?>
<!DOCTYPE svg PUBLIC "-//W3C//DTD SVG 20010904//EN"
 "http://www.w3.org/TR/2001/REC-SVG-20010904/DTD/svg10.dtd">
<svg version="1.0" xmlns="http://www.w3.org/2000/svg"
 width="1350.000000pt" height="1350.000000pt" viewBox="0 0 1350.000000 1350.000000"
 preserveAspectRatio="xMidYMid meet">
<metadata>
Created by potrace 1.14, written by Peter Selinger 2001-2017
</metadata>
<g transform="translate(0.000000,1350.000000) scale(0.100000,-0.100000)"
fill="#000000" stroke="none">
<path d="M5010 11480 c-118 -9 -170 -18 -170 -31 0 -5 -11 -9 -25 -9 -14 0
-25 -4 -25 -9 0 -6 93 -7 230 -4 326 8 574 -21 634 -76 22 -20 66 -45 70 -39
1 2 22 27 45 56 25 30 40 57 35 61 -10 9 -124 37 -189 46 -69 10 -495 14 -605
5z"/>
<path d="M4990 11403 c-25 -2 -107 -12 -183 -23 -76 -11 -158 -20 -181 -20
-23 0 -46 -4 -52 -9 -5 -5 -38 -16 -74 -25 -36 -9 -99 -26 -140 -36 -90 -23
-371 -119 -455 -155 -33 -15 -69 -29 -80 -32 -42 -14 -335 -163 -425 -218
-102 -61 -239 -154 -360 -244 -251 -185 -350 -287 -584 -602 -68 -91 -135
-177 -148 -192 -14 -15 -38 -50 -53 -79 -16 -29 -43 -80 -61 -113 -18 -33 -44
-82 -59 -110 -14 -27 -30 -57 -35 -65 -8 -13 -77 -161 -100 -215 -5 -11 -18
-41 -30 -67 -19 -45 -95 -275 -139 -424 -12 -39 -21 -84 -21 -100 0 -17 -4
-34 -9 -39 -9 -9 -53 -299 -65 -430 -22 -235 -21 -506 3 -650 6 -33 10 -83 9
-112 -1 -29 4 -58 10 -66 7 -8 15 -49 18 -91 4 -42 11 -79 15 -82 5 -3 9 -15
9 -26 0 -12 4 -35 10 -52 5 -17 19 -65 31 -106 49 -171 120 -324 180 -389 21
-22 42 -41 47 -41 5 0 23 22 41 50 18 27 40 55 50 62 9 7 43 48 75 91 32 42
62 77 66 77 3 0 21 21 40 46 18 25 58 72 89 104 31 32 103 109 161 170 147
157 479 483 640 630 52 47 109 99 128 117 31 29 59 54 211 186 31 27 67 59 81
71 14 12 48 40 75 61 44 35 111 91 155 129 8 8 33 26 55 40 22 15 42 30 45 34
7 10 99 72 106 72 4 0 19 11 35 24 16 14 51 37 78 52 47 25 50 30 64 88 33
136 85 281 153 424 76 162 135 285 159 332 44 89 137 266 160 305 13 22 35 63
49 90 15 28 49 91 76 140 28 50 57 104 66 120 30 58 51 95 62 107 5 7 19 30
31 51 34 60 56 99 90 155 17 29 31 56 31 60 0 4 14 25 30 46 17 22 30 44 30
48 0 5 11 24 25 42 14 18 25 37 25 41 0 4 11 23 25 41 14 18 25 36 25 40 0 4
11 21 24 39 22 29 36 50 91 144 11 18 41 63 68 99 26 37 47 70 47 75 0 4 34
52 75 107 l74 98 -36 28 c-39 29 -115 51 -233 65 -84 10 -350 17 -420 12z"/>
<path d="M4199 11294 c-9 -11 -7 -14 14 -14 32 0 44 16 17 23 -10 3 -24 -1
-31 -9z"/>
<path d="M4103 11260 c-18 -11 -33 -22 -33 -24 0 -10 74 21 78 32 5 17 -8 15
-45 -8z"/>
<path d="M3861 11159 c-13 -5 -21 -12 -18 -15 3 -3 18 1 34 10 31 17 21 20
-16 5z"/>
<path d="M3760 11110 c-19 -11 -30 -19 -25 -19 6 0 26 8 45 19 19 11 31 19 25
19 -5 0 -26 -8 -45 -19z"/>
<path d="M8110 10434 c-36 -2 -75 -6 -87 -9 -26 -6 -31 -25 -7 -25 8 0 12 -5
9 -10 -6 -10 8 -19 37 -24 7 -1 24 -8 37 -15 17 -9 26 -10 34 -2 18 18 25 13
32 -20 4 -18 12 -29 19 -26 7 3 23 -3 35 -12 33 -25 67 -16 82 23 l12 31 7
-35 c5 -19 7 -37 5 -41 -5 -8 33 -5 41 4 4 3 22 -6 41 -20 33 -26 36 -26 48
-9 8 11 21 16 32 12 10 -3 45 -6 78 -7 34 -2 64 -8 70 -15 6 -7 34 -13 65 -14
88 -3 102 -1 94 11 -4 8 0 8 15 0 11 -7 21 -16 21 -20 0 -18 -78 -38 -147 -37
-40 1 -73 -3 -73 -8 0 -5 -7 -3 -15 4 -12 10 -13 16 -4 26 13 16 5 18 -20 4
-10 -5 -40 -12 -67 -15 -56 -6 -43 -6 -194 -2 -109 3 -319 -7 -255 -13 30 -2
30 -2 5 -10 -14 -4 -50 -9 -80 -9 -30 -1 -50 -5 -43 -9 6 -4 -12 -7 -40 -8
-89 -1 -127 -12 -128 -37 l0 -22 -9 23 c-5 12 -7 29 -3 38 6 16 -13 15 -107
-6 -33 -7 -33 -8 -7 -10 15 -1 30 -3 35 -4 4 -1 21 -5 38 -9 23 -6 36 -19 52
-52 12 -25 27 -45 32 -45 6 0 9 -4 5 -9 -8 -14 97 -221 109 -214 5 3 6 1 2 -5
-8 -13 44 -123 56 -116 4 3 5 -1 2 -9 -6 -18 42 -117 57 -117 5 0 7 -5 4 -11
-9 -13 66 -180 77 -173 4 3 5 -3 1 -12 -5 -13 -3 -15 7 -9 8 5 11 4 6 -3 -3
-6 12 -53 34 -105 22 -52 42 -103 44 -113 2 -11 23 -59 46 -107 23 -49 40 -91
37 -93 -5 -6 -67 82 -67 95 0 4 -9 16 -20 26 -18 17 -20 17 -14 2 4 -12 1 -17
-12 -18 -16 0 -15 -2 4 -9 38 -16 57 -90 23 -90 -20 0 -48 27 -38 37 11 11
-14 33 -37 33 -21 -1 -21 -1 -1 -16 14 -10 19 -24 17 -44 -3 -23 1 -30 14 -30
16 0 15 -2 -3 -22 l-21 -23 43 -90 c23 -49 85 -178 137 -285 52 -107 117 -240
143 -295 26 -55 95 -197 153 -315 57 -118 127 -262 154 -320 28 -58 58 -114
68 -125 10 -11 26 -45 36 -75 15 -44 19 -50 22 -30 2 14 6 32 9 40 3 8 5 22 4
32 -1 9 3 19 9 23 5 3 10 11 10 18 0 8 -3 8 -11 0 -12 -12 -49 -6 -49 9 0 5 5
6 11 3 10 -7 4 69 -7 87 -3 5 2 8 10 8 10 0 16 9 16 25 0 14 4 25 9 25 4 0 91
-165 193 -367 101 -203 190 -367 196 -366 7 2 9 -4 5 -14 -4 -10 -2 -14 4 -10
7 4 10 0 7 -10 -5 -23 70 -159 85 -155 7 1 9 -2 5 -9 -4 -7 0 -17 8 -23 8 -6
16 -15 17 -21 4 -29 14 -45 23 -39 6 4 8 2 5 -4 -9 -13 2 -44 13 -37 4 3 11
-2 14 -11 4 -9 2 -13 -5 -8 -8 4 -8 1 0 -14 6 -11 11 -29 11 -38 0 -10 6 -25
14 -33 7 -9 39 -65 71 -126 65 -126 70 -133 77 -107 8 30 -39 134 -82 180 -40
42 -40 42 -23 70 22 35 73 89 73 77 0 -5 7 0 16 11 8 10 12 13 8 5 -5 -9 -3
-12 4 -7 7 4 12 13 12 21 0 7 17 28 38 45 20 18 74 68 120 111 78 75 119 105
75 57 -44 -50 -33 -49 28 2 79 66 315 302 352 353 16 20 35 37 43 37 8 0 19
11 24 25 6 15 17 25 29 25 11 0 33 12 50 26 18 15 36 22 43 18 10 -6 11 -4 1
7 -17 17 -18 58 -2 42 9 -9 19 -6 40 9 32 24 34 24 43 -15 4 -19 3 -26 -4 -22
-5 3 -10 13 -10 21 0 8 -4 12 -10 9 -12 -7 -14 -65 -2 -65 4 0 13 5 20 12 9 9
12 -2 12 -52 l0 -63 35 39 c19 21 34 44 35 50 0 7 7 14 15 17 17 7 120 162
153 231 13 28 30 55 37 60 26 21 116 196 108 209 -3 5 4 15 16 23 12 8 21 26
21 39 0 13 4 26 9 30 16 9 58 107 66 150 3 22 15 49 26 61 10 11 23 40 28 65
5 24 21 71 35 104 16 38 24 71 21 90 -4 23 -3 26 4 10 8 -18 9 -17 17 10 12
45 11 108 -2 112 -6 2 -25 -8 -42 -22 -29 -24 -54 -33 -50 -17 1 4 -4 17 -11
30 -7 13 -10 30 -7 38 3 8 1 14 -4 14 -17 0 -11 29 8 39 14 7 18 23 19 64 1
31 7 66 13 78 7 12 14 48 15 78 2 31 6 104 10 162 7 90 5 111 -10 142 -9 20
-24 37 -31 37 -8 0 -14 7 -14 16 0 8 -4 12 -10 9 -5 -3 -8 0 -5 7 5 14 -62 93
-79 93 -6 0 -11 9 -11 20 0 12 -7 20 -17 20 -9 0 -20 4 -25 9 -4 5 -3 6 5 2 7
-4 12 -2 12 6 0 18 -87 93 -108 93 -9 0 -17 5 -17 10 -1 20 -22 42 -108 114
-96 79 -106 94 -89 122 14 22 15 39 4 39 -4 0 -13 -13 -19 -30 -13 -35 -36
-39 -60 -10 -10 11 -22 20 -28 20 -5 0 -17 5 -25 10 -13 9 -13 11 0 20 23 15
60 12 67 -5 5 -14 8 -14 24 1 27 25 24 40 -16 64 -43 27 -47 46 -4 25 24 -13
34 -14 45 -4 12 9 12 15 2 27 -17 20 -78 46 -102 43 -13 -2 -17 2 -13 12 8 21
-6 31 -133 100 -30 17 -66 37 -80 46 -30 20 -255 131 -265 131 -4 0 -21 6 -38
14 -202 92 -471 173 -796 242 -90 19 -178 37 -195 39 -17 3 -56 10 -86 15 -50
8 -107 15 -230 26 -68 6 -476 12 -550 8z m837 -251 c6 -18 -15 -25 -36 -11
-18 11 -23 10 -35 -7 -11 -15 -17 -17 -27 -8 -6 6 -19 9 -28 5 -14 -5 -14 -3
-3 11 21 25 122 33 129 10z m47 -4 c-8 -14 -34 -10 -34 5 0 9 7 12 20 9 11 -3
17 -9 14 -14z m-414 -20 c0 -5 -10 -9 -21 -9 -18 0 -19 2 -9 15 12 15 30 12
30 -6z m1796 -325 c-4 -9 -9 -15 -11 -12 -3 3 -3 13 1 22 4 9 9 15 11 12 3 -3
3 -13 -1 -22z m-211 -64 c3 -5 1 -10 -4 -10 -6 0 -11 5 -11 10 0 6 2 10 4 10
3 0 8 -4 11 -10z m34 -14 c9 -11 9 -16 -1 -22 -7 -4 -10 -4 -6 1 4 4 3 14 -3
22 -6 7 -9 13 -6 13 2 0 10 -6 16 -14z m292 -18 c-4 -12 -13 -24 -19 -26 -8
-2 -7 5 1 27 6 16 14 28 19 25 4 -3 4 -14 -1 -26z m-161 7 c0 -8 -4 -15 -9
-15 -13 0 -22 16 -14 24 11 11 23 6 23 -9z m-80 -14 c0 -6 -4 -12 -8 -15 -5
-3 -9 1 -9 9 0 8 4 15 9 15 4 0 8 -4 8 -9z m150 1 c0 -14 -11 -21 -26 -15 -8
3 -11 9 -8 14 7 11 34 12 34 1z m37 -47 c9 -25 -2 -27 -22 -5 -17 18 -17 20
-1 20 9 0 19 -7 23 -15z m114 -141 c9 -11 2 -9 -18 6 -18 13 -33 25 -33 27 0
8 38 -17 51 -33z m70 -41 c13 -16 12 -17 -3 -4 -17 13 -22 21 -14 21 2 0 10
-8 17 -17z m40 -30 c13 -16 12 -17 -3 -4 -10 7 -18 15 -18 17 0 8 8 3 21 -13z
m40 -30 c13 -16 12 -17 -3 -4 -17 13 -22 21 -14 21 2 0 10 -8 17 -17z m40 -30
c13 -16 12 -17 -3 -4 -10 7 -18 15 -18 17 0 8 8 3 21 -13z m40 -30 c13 -16 12
-17 -3 -4 -10 7 -18 15 -18 17 0 8 8 3 21 -13z m90 -80 c13 -16 12 -17 -3 -4
-10 7 -18 15 -18 17 0 8 8 3 21 -13z m-2643 -178 c-3 -3 -9 2 -12 12 -6 14 -5
15 5 6 7 -7 10 -15 7 -18z m41 -90 c0 -5 -8 6 -19 25 -11 19 -19 40 -19 45 0
6 8 -6 19 -25 11 -19 19 -39 19 -45z m50 -190 c0 -5 -8 1 -18 15 -11 13 -17
29 -14 34 6 9 32 -31 32 -49z m-64 -5 c17 -7 17 -9 3 -9 -10 -1 -18 -8 -18
-16 0 -14 -3 -13 -25 1 -14 9 -25 20 -25 25 0 11 38 10 65 -1z m103 -72 c12
-27 19 -48 18 -48 -9 0 -56 82 -56 97 0 24 14 6 38 -49z m2669 -10 c-3 -8 -6
-5 -6 6 -1 11 2 17 5 13 3 -3 4 -12 1 -19z m-2627 -69 c0 -5 -4 -9 -10 -9 -5
0 -10 7 -10 16 0 8 5 12 10 9 6 -3 10 -10 10 -16z m20 -64 c0 -5 -5 -3 -10 5
-5 8 -10 20 -10 25 0 6 5 3 10 -5 5 -8 10 -19 10 -25z m38 -10 c-3 -3 -9 2
-12 12 -6 14 -5 15 5 6 7 -7 10 -15 7 -18z m20 -40 c-3 -3 -9 2 -12 12 -6 14
-5 15 5 6 7 -7 10 -15 7 -18z m-23 -15 c9 -16 12 -30 7 -30 -8 0 -32 42 -32
55 0 13 11 2 25 -25z m43 -25 c-3 -3 -9 2 -12 12 -6 14 -5 15 5 6 7 -7 10 -15
7 -18z m41 -90 c0 -5 -8 6 -19 25 -11 19 -19 40 -19 45 0 6 8 -6 19 -25 11
-19 19 -39 19 -45z m4 -82 c21 -41 32 -80 19 -68 -11 10 -43 95 -36 95 2 0 10
-12 17 -27z m2597 2 c0 -8 -4 -15 -10 -15 -5 0 -10 7 -10 15 0 8 5 15 10 15 6
0 10 -7 10 -15z m-2552 -110 c-3 -3 -9 2 -12 12 -6 14 -5 15 5 6 7 -7 10 -15
7 -18z m45 -92 c2 -10 8 -27 12 -38 12 -30 -9 -6 -23 28 -6 15 -8 27 -3 27 5
0 11 -8 14 -17z m37 -83 c0 -5 -4 -10 -10 -10 -5 0 -10 5 -10 10 0 6 5 10 10
10 6 0 10 -4 10 -10z m2047 -152 c2 -17 0 -19 -7 -8 -5 8 -6 18 -4 22 8 12 10
10 11 -14z m-1967 -19 c0 -6 -4 -7 -10 -4 -5 3 -10 11 -10 16 0 6 5 7 10 4 6
-3 10 -11 10 -16z m29 -64 c11 -26 11 -28 -2 -15 -8 8 -18 26 -22 40 -9 32 7
15 24 -25z m1837 -95 c0 -10 -2 -17 -5 -15 -2 3 -11 -1 -19 -8 -11 -9 -11 -4
2 16 22 32 22 32 22 7z m-1737 -107 l21 -43 -42 1 c-37 0 -40 2 -20 10 19 7
22 14 16 31 -3 13 -11 25 -16 27 -6 2 -4 7 3 12 7 4 14 7 15 6 1 -1 11 -21 23
-44z m1681 23 c0 -2 -8 -10 -17 -17 -16 -13 -17 -12 -4 4 13 16 21 21 21 13z
m-45 -104 c-3 -3 -11 0 -18 7 -9 10 -8 11 6 5 10 -3 15 -9 12 -12z m-25 -6 c0
-2 -8 -10 -17 -17 -16 -13 -17 -12 -4 4 13 16 21 21 21 13z m-30 -40 c0 -2 -8
-10 -17 -17 -16 -13 -17 -12 -4 4 13 16 21 21 21 13z m-1462 -61 c-3 -3 -9 2
-12 12 -6 14 -5 15 5 6 7 -7 10 -15 7 -18z m1432 21 c0 -2 -8 -10 -17 -17 -16
-13 -17 -12 -4 4 13 16 21 21 21 13z m-30 -40 c0 -2 -8 -10 -17 -17 -16 -13
-17 -12 -4 4 13 16 21 21 21 13z m230 -76 c0 -5 -5 -10 -11 -10 -5 0 -7 5 -4
10 3 6 8 10 11 10 2 0 4 -4 4 -10z m-1560 -44 c0 -12 -5 -7 -19 24 -11 24 -11
24 3 6 9 -11 16 -24 16 -30z m1280 41 c0 -2 -11 -18 -25 -37 -14 -19 -25 -31
-25 -27 0 5 10 21 22 37 20 27 28 35 28 27z m136 -22 c-11 -8 -25 -15 -30 -15
-6 0 -2 7 8 15 11 8 25 15 30 15 6 0 2 -7 -8 -15z m114 5 c0 -5 -5 -10 -11
-10 -5 0 -7 5 -4 10 3 6 8 10 11 10 2 0 4 -4 4 -10z m10 -70 c0 -5 -4 -10 -10
-10 -5 0 -10 5 -10 10 0 6 5 10 10 10 6 0 10 -4 10 -10z m-360 -34 c0 -2 -8
-10 -17 -17 -16 -13 -17 -12 -4 4 13 16 21 21 21 13z m-30 -40 c0 -2 -8 -10
-17 -17 -16 -13 -17 -12 -4 4 13 16 21 21 21 13z m-30 -40 c0 -2 -8 -10 -17
-17 -16 -13 -17 -12 -4 4 13 16 21 21 21 13z m-80 -89 c0 -2 -10 -12 -22 -23
l-23 -19 19 23 c18 21 26 27 26 19z m-80 -87 c-12 -16 -24 -30 -26 -30 -3 0 4
14 16 30 12 17 24 30 26 30 3 0 -4 -13 -16 -30z"/>
<path d="M8167 10260 c-3 -11 -2 -20 3 -20 4 0 10 9 13 20 3 11 2 20 -3 20 -4
0 -10 -9 -13 -20z"/>
<path d="M8276 10255 c-3 -8 -1 -15 4 -15 6 0 10 7 10 15 0 8 -2 15 -4 15 -2
0 -6 -7 -10 -15z"/>
<path d="M7500 10110 l-35 -7 40 -2 c22 0 47 4 55 9 12 8 11 9 -5 9 -11 -1
-36 -5 -55 -9z"/>
<path d="M7435 10073 c-97 -12 -239 -40 -335 -66 -30 -9 -82 -22 -115 -31
-107 -27 -565 -182 -765 -259 -213 -82 -492 -199 -646 -273 -55 -25 -125 -57
-156 -69 -145 -59 -582 -304 -798 -448 -112 -75 -310 -223 -322 -241 -4 -6 -8
-23 -8 -39 0 -19 -7 -31 -23 -38 -13 -6 -30 -29 -40 -57 -26 -69 -170 -503
-200 -602 -119 -388 -235 -980 -263 -1330 -3 -47 -8 -87 -9 -90 -2 -3 -7 -91
-12 -195 -14 -338 -8 -802 15 -1130 l7 -90 135 -32 c74 -18 180 -42 235 -54
121 -25 138 -30 133 -35 -5 -4 -430 82 -475 97 -18 6 -35 15 -39 20 -3 5 -14
135 -24 287 -18 271 -20 658 -5 917 9 154 44 516 52 528 3 5 1 7 -5 4 -9 -6
-14 -28 -28 -132 -2 -11 -8 -74 -13 -139 -6 -66 -13 -137 -15 -159 -3 -21 -8
-87 -12 -145 -3 -59 -10 -112 -15 -118 -5 -6 -9 -31 -9 -55 1 -24 -2 -64 -5
-89 -3 -25 -5 -66 -5 -91 1 -30 -5 -50 -15 -59 -20 -17 -27 -9 -42 48 -10 39
-9 49 3 58 20 16 18 24 -6 24 -11 0 -20 7 -20 16 0 11 -6 14 -20 9 -24 -8 -25
2 -4 44 19 38 12 70 -11 51 -19 -15 -50 -5 -80 28 l-25 27 0 -33 c0 -20 4 -31
10 -27 5 3 10 2 10 -3 0 -6 -6 -12 -14 -15 -20 -8 -29 -290 -17 -552 29 -597
127 -1094 312 -1580 66 -173 147 -355 160 -355 15 0 32 33 31 61 -1 28 2 30
25 24 27 -6 57 11 47 27 -4 7 -9 7 -13 0 -3 -6 -18 -1 -35 13 -36 29 -30 55
14 55 20 0 30 5 30 15 0 8 6 15 13 15 18 0 37 -48 30 -81 -5 -24 -2 -29 14
-29 26 0 46 -24 67 -82 10 -26 22 -51 28 -54 15 -10 3 24 -58 163 -30 68 -54
125 -54 128 0 7 -45 109 -61 137 -5 10 -9 30 -9 44 0 15 -6 32 -13 38 -7 6
-24 49 -36 96 -13 47 -27 96 -32 110 -4 14 -15 59 -24 100 -9 41 -25 111 -35
155 -19 79 -27 128 -34 215 -2 25 -7 57 -11 71 -8 31 6 44 32 29 28 -15 403
-82 429 -76 12 3 24 1 26 -4 2 -6 46 -18 98 -27 52 -8 189 -32 303 -53 114
-20 210 -33 213 -28 3 5 11 4 18 -1 7 -6 30 -13 52 -16 21 -2 71 -11 109 -20
39 -9 79 -15 90 -14 49 3 106 -2 101 -9 -3 -5 1 -9 9 -9 8 0 12 4 9 8 -2 4 2
10 8 12 7 3 3 6 -10 6 -13 1 -112 19 -220 42 -211 43 -249 50 -412 74 -223 33
-255 39 -265 48 -6 6 -1 8 15 4 14 -3 68 -11 120 -17 52 -6 124 -15 160 -20
145 -21 162 -21 158 -2 -3 13 -14 17 -46 18 -23 0 -44 3 -47 6 -9 9 60 19 79
12 9 -3 16 -2 16 4 0 5 -6 12 -13 15 -7 3 -19 23 -26 46 -8 27 -18 41 -29 41
-9 0 -24 5 -32 11 -17 12 52 5 105 -11 17 -4 82 -16 145 -25 116 -17 289 -46
390 -67 l55 -11 -50 -13 c-27 -8 -68 -14 -90 -15 -22 0 -49 -4 -60 -9 -16 -7
-12 -9 20 -10 22 -2 45 -1 50 0 6 1 43 7 83 14 40 6 70 15 66 19 -4 4 1 7 12
7 27 0 316 -49 322 -54 2 -3 -16 -10 -39 -16 -69 -18 -69 -21 1 -13 108 11
190 8 295 -11 87 -16 97 -20 75 -29 l-25 -11 29 -4 c16 -2 32 2 36 8 5 8 22
10 51 5 24 -4 58 -9 74 -11 17 -2 66 -11 111 -19 44 -8 103 -17 130 -20 27 -3
58 -9 69 -12 11 -4 27 -7 35 -8 56 -6 167 -30 175 -37 6 -6 4 -7 -5 -4 -8 2
-39 7 -67 11 -42 4 -53 3 -53 -8 0 -8 -9 -17 -19 -20 -11 -2 -27 -19 -35 -36
-20 -38 -5 -71 34 -71 33 -1 122 -25 116 -31 -9 -9 -200 17 -376 50 -146 27
-221 38 -375 56 l-40 4 43 -10 c23 -6 42 -15 42 -20 0 -6 4 -8 9 -5 5 4 12 0
14 -6 4 -10 6 -10 6 0 1 18 21 15 38 -5 8 -10 12 -12 8 -5 -4 8 3 12 25 12 17
0 29 -4 26 -8 -3 -5 9 -6 26 -4 18 3 28 1 25 -5 -7 -10 4 -13 57 -16 19 -1 32
-5 29 -9 -2 -5 14 -9 36 -9 23 -1 44 -2 49 -3 9 -3 171 -31 352 -62 80 -13
208 -35 285 -49 77 -13 199 -33 270 -45 72 -12 173 -30 225 -40 135 -27 170
-32 145 -21 -19 9 -19 10 2 10 63 2 67 -22 19 -122 -18 -40 -44 -101 -56 -137
-13 -36 -29 -72 -37 -81 -7 -8 -13 -22 -13 -29 0 -14 -26 -69 -66 -135 -13
-22 -28 -50 -34 -63 -5 -12 -28 -46 -50 -76 -22 -29 -40 -56 -40 -60 0 -4 -31
-50 -70 -101 -38 -51 -70 -96 -70 -100 0 -7 -109 -162 -147 -209 -13 -16 -21
-31 -19 -34 5 -4 58 48 143 140 28 30 27 11 -1 -22 -21 -26 -24 -35 -15 -52 6
-12 17 -17 26 -14 8 3 25 6 38 6 16 0 27 9 37 30 12 29 28 40 28 21 0 -5 13
-3 29 5 32 16 111 10 111 -9 0 -13 57 59 81 103 11 19 37 64 59 99 22 34 40
65 40 67 0 2 15 27 33 56 54 89 171 318 267 523 23 50 46 95 51 101 8 10 152
-8 271 -35 27 -6 132 -25 235 -41 104 -17 201 -33 217 -36 19 -4 26 -3 22 5
-4 6 -17 11 -28 11 -47 0 -136 32 -141 50 -3 13 0 17 9 13 8 -3 14 0 14 6 0 6
9 11 20 11 19 0 20 2 5 36 -8 20 -12 40 -9 45 3 5 36 7 74 4 38 -3 71 -2 74 3
6 11 -37 22 -104 28 -25 3 -56 8 -70 13 -38 14 -540 113 -710 141 -30 5 -113
20 -185 33 -71 14 -146 27 -165 30 -119 17 -310 50 -306 54 2 2 37 0 78 -6
126 -19 329 -49 433 -66 55 -8 129 -20 165 -25 36 -5 110 -17 165 -25 152 -24
352 -54 430 -66 39 -5 81 -12 95 -14 14 -2 77 -11 140 -19 63 -9 160 -22 215
-31 215 -33 907 -116 1075 -130 270 -21 286 -19 275 23 -20 82 -274 651 -610
1367 -108 231 -216 463 -240 515 -45 101 -394 831 -664 1388 -88 184 -161 336
-161 339 0 8 -433 896 -633 1298 -104 209 -209 425 -234 480 -25 55 -100 207
-166 337 -100 195 -126 237 -142 236 -11 0 -33 -3 -50 -5z m-3031 -5102 c3 -4
-6 -6 -19 -3 -14 2 -25 6 -25 8 0 8 39 4 44 -5z m109 -21 c5 -4 -13 -4 -39 1
-26 5 -50 11 -53 14 -8 9 83 -7 92 -15z m135 -21 c39 -7 72 -16 72 -20 0 -4
-15 -3 -32 1 -18 5 -52 12 -76 15 -24 3 -53 11 -65 16 -21 9 -21 9 3 5 14 -2
58 -10 98 -17z m-278 -137 c0 -5 -13 -7 -30 -4 -16 2 -30 6 -30 8 0 2 14 4 30
4 17 0 30 -4 30 -8z m-568 -237 c0 -5 -5 -11 -11 -13 -6 -2 -11 4 -11 13 0 9
5 15 11 13 6 -2 11 -8 11 -13z m3205 -31 c29 -3 76 -12 105 -20 29 -7 37 -11
18 -9 -19 3 -55 8 -80 11 -25 3 -74 12 -110 19 -62 14 -49 13 67 -1z m233 -40
c0 -2 -11 -4 -25 -4 -14 0 -25 4 -25 9 0 4 11 6 25 3 14 -2 25 -6 25 -8z
m-415 -94 c3 -6 -4 -10 -17 -10 -18 0 -20 2 -8 10 19 12 18 12 25 0z m80 -20
c13 -6 15 -9 5 -9 -8 0 -22 4 -30 9 -18 12 -2 12 25 0z m1720 -260 c3 -5 -1
-10 -9 -10 -9 0 -16 5 -16 10 0 6 4 10 9 10 6 0 13 -4 16 -10z m-30 -40 c3 -5
1 -10 -4 -10 -6 0 -11 5 -11 10 0 6 2 10 4 10 3 0 8 -4 11 -10z m-1125 -860
c0 -5 -5 -10 -11 -10 -5 0 -7 5 -4 10 3 6 8 10 11 10 2 0 4 -4 4 -10z"/>
<path d="M10960 9929 c0 -3 8 -32 19 -65 45 -144 67 -256 81 -420 11 -127 8
-200 -9 -247 -8 -21 -8 -34 1 -50 l11 -22 20 27 c39 53 47 95 37 193 -6 50
-15 106 -20 125 -5 19 -18 78 -30 130 -12 52 -25 106 -30 120 -5 14 -16 52
-26 85 -17 54 -53 138 -54 124z"/>
<path d="M10641 9597 c-13 -16 -5 -27 21 -27 21 0 23 13 4 29 -10 8 -16 8 -25
-2z"/>
<path d="M8130 9061 c0 -5 9 -11 20 -14 24 -6 27 8 4 17 -21 8 -24 8 -24 -3z"/>
<path d="M8090 8943 c1 -4 7 -19 16 -33 l14 -25 -2 29 c-2 16 -9 31 -15 34 -7
2 -13 0 -13 -5z"/>
<path d="M1803 8826 c-11 -36 -11 -38 3 -24 9 8 14 26 12 39 -2 20 -5 18 -15
-15z"/>
<path d="M1770 8727 c0 -3 -14 -59 -31 -124 -17 -65 -32 -147 -34 -183 -1 -36
-7 -90 -14 -121 -9 -43 -9 -63 0 -85 12 -28 13 -27 21 36 13 104 28 233 29
254 0 11 4 27 10 37 17 33 40 172 29 183 -6 6 -10 7 -10 3z"/>
<path d="M11197 8513 c-4 -3 -7 -13 -7 -22 1 -13 3 -13 11 2 11 19 8 33 -4 20z"/>
<path d="M1661 8180 c-20 -39 -35 -391 -20 -495 4 -33 15 -123 23 -200 8 -77
18 -151 20 -165 15 -71 30 -129 42 -168 8 -23 14 -58 14 -77 0 -19 5 -35 10
-35 6 0 10 -9 10 -20 0 -11 4 -20 9 -20 5 0 6 15 1 33 -4 18 -3 43 1 56 5 12
5 41 0 64 -6 23 -17 87 -26 142 -9 55 -17 109 -19 120 -2 11 -9 67 -15 125 -6
58 -16 150 -23 205 -6 55 -14 177 -18 270 -3 94 -7 168 -9 165z"/>
<path d="M8888 7503 c5 -21 7 -23 10 -9 2 10 0 22 -6 28 -6 6 -7 0 -4 -19z"/>
<path d="M8900 7460 c0 -5 5 -10 11 -10 5 0 7 5 4 10 -3 6 -8 10 -11 10 -2 0
-4 -4 -4 -10z"/>
<path d="M10462 7240 c-20 -8 -22 -15 -18 -56 5 -57 12 -65 27 -28 9 21 21 98
15 93 -1 0 -11 -4 -24 -9z"/>
<path d="M10340 7135 c0 -8 5 -15 10 -15 6 0 10 7 10 15 0 8 -4 15 -10 15 -5
0 -10 -7 -10 -15z"/>
<path d="M10505 7121 c-3 -5 -1 -12 5 -16 5 -3 10 1 10 9 0 18 -6 21 -15 7z"/>
<path d="M1771 6944 c0 -11 3 -14 6 -6 3 7 2 16 -1 19 -3 4 -6 -2 -5 -13z"/>
<path d="M3772 6885 c0 -16 2 -22 5 -12 2 9 2 23 0 30 -3 6 -5 -1 -5 -18z"/>
<path d="M9756 6644 c-54 -45 -68 -67 -29 -46 20 12 100 92 91 92 -3 0 -31
-21 -62 -46z"/>
<path d="M2022 6549 c9 -26 7 -35 -10 -57 -11 -16 -28 -26 -40 -25 -18 2 -19
0 -8 -22 6 -14 13 -25 16 -24 3 0 26 31 53 69 40 60 45 70 28 70 -11 0 -23 5
-26 10 -14 23 -23 8 -13 -21z"/>
<path d="M9640 6161 c0 -6 4 -13 10 -16 6 -3 7 1 4 9 -7 18 -14 21 -14 7z"/>
<path d="M3596 6073 c-4 -9 -1 -21 5 -27 9 -8 10 -8 5 2 -4 6 -2 12 3 12 6 0
11 7 11 15 0 20 -16 19 -24 -2z"/>
<path d="M5318 4603 c6 -2 18 -2 25 0 6 3 1 5 -13 5 -14 0 -19 -2 -12 -5z"/>
<path d="M5373 4593 c9 -2 25 -2 35 0 9 3 1 5 -18 5 -19 0 -27 -2 -17 -5z"/>
<path d="M6475 4590 c3 -5 21 -10 38 -9 31 1 31 1 7 9 -36 11 -52 11 -45 0z"/>
<path d="M5448 4583 c6 -2 18 -2 25 0 6 3 1 5 -13 5 -14 0 -19 -2 -12 -5z"/>
<path d="M5383 4573 c9 -2 23 -2 30 0 6 3 -1 5 -18 5 -16 0 -22 -2 -12 -5z"/>
<path d="M11465 4157 c-11 -6 -53 -33 -93 -60 -179 -120 -506 -237 -660 -237
l-69 0 5 -27 c4 -23 3 -26 -9 -17 -9 8 -114 13 -309 17 -162 3 -311 8 -330 11
-19 2 -73 7 -120 11 -169 12 -300 22 -365 30 -22 3 -67 7 -100 10 -33 3 -73 7
-90 9 -16 2 -59 7 -95 11 -124 12 -386 46 -510 65 -69 11 -159 25 -200 31 -41
6 -162 27 -268 46 -181 32 -212 34 -212 13 0 -19 -172 -371 -234 -480 -14 -25
-29 -52 -33 -60 -7 -16 -53 -97 -90 -158 -12 -21 -27 -48 -33 -61 -6 -13 -22
-38 -36 -54 -14 -17 -30 -40 -34 -51 -5 -12 -27 -45 -49 -75 -23 -30 -41 -58
-41 -63 0 -10 -236 -325 -247 -329 -5 -2 -24 -24 -42 -49 -19 -25 -46 -57 -60
-71 -14 -14 -60 -61 -102 -105 -42 -43 -109 -108 -149 -144 -40 -36 -80 -72
-89 -80 -9 -8 -50 -41 -91 -72 -41 -31 -88 -68 -105 -81 -16 -13 -52 -37 -80
-52 -27 -16 -80 -48 -116 -71 -145 -94 -410 -201 -634 -258 -57 -14 -173 -33
-335 -56 -94 -12 -447 -4 -557 13 -78 12 -112 7 -60 -9 12 -3 40 -15 62 -24
22 -10 52 -21 67 -24 15 -3 40 -11 55 -18 15 -6 35 -12 43 -14 8 -2 80 -22
160 -44 80 -23 168 -48 195 -55 28 -7 70 -19 95 -25 24 -7 60 -14 80 -16 19
-3 49 -9 65 -14 32 -9 224 -39 415 -64 193 -25 719 -36 965 -20 238 15 401 31
510 50 299 50 480 87 633 129 28 8 78 22 110 30 145 40 174 48 276 81 319 102
663 255 1031 459 77 43 156 89 176 104 21 14 93 65 160 113 113 79 322 242
367 286 45 42 150 138 169 153 10 8 53 61 93 117 41 55 77 96 81 91 10 -17
196 177 373 391 119 143 346 456 346 476 0 3 11 20 25 38 14 18 25 36 25 39 0
3 13 28 29 55 15 26 34 64 40 84 13 38 23 88 19 87 -2 0 -12 -5 -23 -12z"/>
<path d="M8680 4145 c0 -8 7 -15 15 -15 8 0 15 4 15 9 0 5 -7 11 -15 15 -9 3
-15 0 -15 -9z"/>
<path d="M8810 4140 c0 -5 7 -10 16 -10 8 0 12 5 9 10 -3 6 -10 10 -16 10 -5
0 -9 -4 -9 -10z"/>
<path d="M8714 4078 c-3 -5 -1 -15 5 -21 8 -8 15 -7 27 5 14 14 14 16 -5 21
-12 3 -24 1 -27 -5z"/>
<path d="M8853 3983 c9 -2 23 -2 30 0 6 3 -1 5 -18 5 -16 0 -22 -2 -12 -5z"/>
<path d="M4200 3505 c0 -12 40 -84 51 -90 5 -4 -1 16 -15 44 -24 46 -36 61
-36 46z"/>
<path d="M4004 3403 c9 -17 20 -35 26 -38 18 -11 10 10 -16 40 l-25 30 15 -32z"/>
<path d="M7024 2958 l-19 -23 23 19 c12 11 22 21 22 23 0 8 -8 2 -26 -19z"/>
<path d="M7216 2868 c-15 -24 -68 -189 -62 -195 6 -6 27 44 54 130 16 48 27
87 25 87 -1 0 -9 -10 -17 -22z"/>
<path d="M4415 2795 c28 -25 59 -51 70 -57 27 -13 -60 68 -93 88 -15 9 -5 -5
23 -31z"/>
<path d="M6909 2823 c-13 -16 -12 -17 4 -4 16 13 21 21 13 21 -2 0 -10 -8 -17
-17z"/>
<path d="M6840 2749 c0 -5 5 -7 10 -4 6 3 10 8 10 11 0 2 -4 4 -10 4 -5 0 -10
-5 -10 -11z"/>
<path d="M4715 2710 c3 -5 8 -10 11 -10 2 0 4 5 4 10 0 6 -5 10 -11 10 -5 0
-7 -4 -4 -10z"/>
<path d="M4740 2686 c0 -4 23 -35 50 -68 57 -69 63 -93 23 -94 -16 0 -52 -10
-82 -21 l-54 -21 119 -119 c130 -129 274 -256 399 -350 107 -81 120 -86 169
-78 68 11 126 17 126 12 0 -5 -152 -42 -210 -51 -171 -27 -425 -34 -590 -16
-52 6 -117 13 -145 16 -27 3 -65 9 -83 14 -29 8 -32 7 -21 -6 7 -8 18 -13 25
-10 7 3 24 -4 37 -15 28 -21 57 -25 57 -7 0 9 3 9 12 0 7 -7 22 -12 34 -12 12
0 49 -7 81 -15 32 -8 69 -17 83 -19 14 -3 54 -13 90 -22 36 -9 81 -18 100 -20
134 -13 242 -35 265 -54 6 -5 30 0 55 11 40 18 50 19 95 8 57 -14 209 -14 234
1 13 8 11 9 -11 10 -16 0 -28 5 -28 11 0 7 11 9 28 6 15 -3 43 -8 63 -12 40
-8 152 19 324 77 156 52 371 159 513 254 53 35 99 64 103 64 4 0 14 11 23 25
16 24 15 25 -3 25 -11 0 -27 -13 -38 -30 -12 -22 -25 -30 -45 -30 -26 0 -27 2
-21 32 5 25 3 29 -8 23 -12 -8 -12 -6 0 8 12 15 11 17 -3 17 -9 0 -16 5 -16
10 0 24 31 68 52 75 19 6 20 8 6 12 -11 3 -18 17 -20 41 -3 31 2 42 31 68 29
26 32 32 18 37 -9 3 -17 2 -17 -3 0 -6 -6 -10 -13 -10 -7 0 -20 -8 -28 -17
-40 -46 -176 -146 -309 -229 -152 -95 -275 -155 -393 -194 -53 -18 -97 -37
-97 -42 0 -6 -12 -8 -26 -5 -14 2 -41 0 -59 -6 -30 -9 -38 -7 -69 16 -19 15
-39 27 -44 27 -6 0 -33 18 -61 40 -28 22 -54 40 -59 40 -11 0 -166 117 -208
156 -17 16 -57 52 -90 79 -72 62 -265 254 -321 320 -24 28 -43 46 -43 41z
m130 -216 c0 -6 -9 -5 -20 2 -11 7 -20 16 -20 21 0 4 9 3 20 -3 11 -6 20 -15
20 -20z m-100 -5 c-7 -9 -15 -13 -17 -11 -7 7 7 26 19 26 6 0 6 -6 -2 -15z
m944 -664 c17 -6 17 -8 4 -14 -9 -3 -24 1 -35 8 -14 11 -15 14 -3 14 8 0 24
-4 34 -8z"/>
<path d="M6982 2538 c-6 -18 -13 -42 -18 -52 -5 -13 -4 -17 3 -13 15 9 44 97
33 97 -5 0 -13 -15 -18 -32z"/>
<path d="M6799 2363 c-19 -21 -31 -63 -18 -63 11 0 41 58 37 71 -2 6 -11 2
-19 -8z"/>
<path d="M4375 1920 c3 -5 14 -10 23 -10 15 0 15 2 2 10 -20 13 -33 13 -25 0z"/>
<path d="M5320 1730 c8 -5 35 -9 60 -9 37 1 41 2 20 9 -38 12 -99 12 -80 0z"/>
</g>
</svg>
